<?xml version="1.0" encoding="UTF-8"?>
<svg width="82px" height="83px" viewBox="0 0 82 83" version="1.1" xmlns="http://www.w3.org/2000/svg" xmlns:xlink="http://www.w3.org/1999/xlink">
    <!-- Generator: Sketch 47.1 (45422) - http://www.bohemiancoding.com/sketch -->
    <title>figure-g</title>
    <desc>Created with Sketch.</desc>
    <defs></defs>
    <g id="norm" stroke="none" stroke-width="1" fill="none" fill-rule="evenodd">
        <g id="figure-g">
            <path d="M2.832,47.864 L2.64,48.584 L4.308,48.584 L4.128,47.864 C4.01599944,47.471998 3.90800052,47.0560022 3.804,46.616 C3.69999948,46.1759978 3.59600052,45.752002 3.492,45.344 L3.444,45.344 C3.34799952,45.7600021 3.2500005,46.1859978 3.15,46.622 C3.0499995,47.0580022 2.94400056,47.471998 2.832,47.864 Z M0,51.824 L2.448,44 L4.572,44 L7.02,51.824 L5.148,51.824 L4.668,49.964 L2.28,49.964 L1.8,51.824 L0,51.824 Z" id="A" fill="#FF7C18"></path>
            <path d="M44,7.824 L44,0 L49.34,0 L49.34,1.488 L45.764,1.488 L45.764,3.06 L46.844,3.06 C47.252002,3.06 47.6379982,3.09799962 48.002,3.174 C48.3660018,3.25000038 48.6839986,3.3779991 48.956,3.558 C49.2280014,3.7380009 49.4439992,3.97199856 49.604,4.26 C49.7640008,4.54800144 49.844,4.90799784 49.844,5.34 C49.844,5.78800224 49.7680008,6.16999842 49.616,6.486 C49.4639992,6.80200158 49.2540013,7.05799902 48.986,7.254 C48.7179987,7.45000098 48.4040018,7.59399954 48.044,7.686 C47.6839982,7.77800046 47.300002,7.824 46.892,7.824 L44,7.824 Z M45.764,6.456 L46.712,6.456 C47.1840024,6.456 47.5359988,6.37000086 47.768,6.198 C48.0000012,6.02599914 48.116,5.74800192 48.116,5.364 C48.116,4.99599816 47.9960012,4.73600076 47.756,4.584 C47.5159988,4.43199924 47.1640023,4.356 46.7,4.356 L45.764,4.356 L45.764,6.456 Z" id="B" fill="#FF7C18"></path>
            <path d="M11,12 L82,12 L82,83 L11,83 L11,12 Z M46.5,47.5 L46.5,83 L82,83 L82,47.5 L46.5,47.5 Z" id="figure" fill="#E6E6E6"></path>
            <polygon id="G" fill="#FF7C18" points="35 67.824 35 60 39.932 60 39.932 61.488 36.764 61.488 36.764 67.824"></polygon>
            <path d="M61,42.824 L61,35 L63.676,35 C64.084002,35 64.4619983,35.0299997 64.81,35.09 C65.1580017,35.1500003 65.4619987,35.2559992 65.722,35.408 C65.9820013,35.5600008 66.1859993,35.7599988 66.334,36.008 C66.4820007,36.2560012 66.556,36.5679981 66.556,36.944 C66.556,37.1200009 66.5320002,37.2959991 66.484,37.472 C66.4359998,37.6480009 66.3680004,37.8119992 66.28,37.964 C66.1919996,38.1160008 66.0860006,38.2519994 65.962,38.372 C65.8379994,38.4920006 65.6960008,38.5799997 65.536,38.636 L65.536,38.684 C65.736001,38.7320002 65.9199992,38.8059995 66.088,38.906 C66.2560008,39.0060005 66.4039994,39.1319992 66.532,39.284 C66.6600006,39.4360008 66.7599996,39.613999 66.832,39.818 C66.9040004,40.022001 66.94,40.2559987 66.94,40.52 C66.94,40.920002 66.8620008,41.2639986 66.706,41.552 C66.5499992,41.8400014 66.3340014,42.0779991 66.058,42.266 C65.7819986,42.4540009 65.4600018,42.5939995 65.092,42.686 C64.7239982,42.7780005 64.3280021,42.824 63.904,42.824 L61,42.824 Z M62.764,38.132 L63.592,38.132 C64.0240022,38.132 64.337999,38.0480008 64.534,37.88 C64.730001,37.7119992 64.828,37.4880014 64.828,37.208 C64.828,36.9039985 64.728001,36.6880006 64.528,36.56 C64.327999,36.4319994 64.0200021,36.368 63.604,36.368 L62.764,36.368 L62.764,38.132 Z M62.764,41.456 L63.76,41.456 C64.7280048,41.456 65.212,41.1040035 65.212,40.4 C65.212,40.0559983 65.0920012,39.8100007 64.852,39.662 C64.6119988,39.5139993 64.2480024,39.44 63.76,39.44 L62.764,39.44 L62.764,41.456 Z" id="V" fill="#FF7C18"></path>
            <rect id="line-b" fill="#FF7C18" x="12" y="12" width="70" height="1"></rect>
            <rect id="line-v" fill="#FF7C18" x="46" y="47" width="36" height="1"></rect>
            <rect id="line-a" fill="#FF7C18" x="11" y="12" width="1" height="71"></rect>
            <rect id="line-g" fill="#FF7C18" x="46" y="47" width="1" height="36"></rect>
        </g>
    </g>
</svg>