<?xml version="1.0" encoding="UTF-8"?>
<svg width="111px" height="78px" viewBox="0 0 111 78" version="1.1" xmlns="http://www.w3.org/2000/svg" xmlns:xlink="http://www.w3.org/1999/xlink">
    <!-- Generator: Sketch 47.1 (45422) - http://www.bohemiancoding.com/sketch -->
    <title>figure-combined</title>
    <desc>Created with Sketch.</desc>
    <defs></defs>
    <g id="norm" stroke="none" stroke-width="1" fill="none" fill-rule="evenodd">
        <g id="figure-combined">
            <path d="M11,12 L111,12 L111,66 L11,66 L11,12 Z M11,12 L11,30 L46.7142857,30 L46.7142857,12 L11,12 Z M75.2857143,12 L75.2857143,30 L111,30 L111,12 L75.2857143,12 Z" id="figure" fill="#E6E6E6"></path>
            <rect id="line-1" fill="#FF7C18" x="11" y="30" width="1" height="36"></rect>
            <rect id="line-g" fill="#FF7C18" x="11" y="65" width="100" height="1"></rect>
            <rect id="line-b" fill="#FF7C18" x="47" y="12" width="28" height="1"></rect>
            <rect id="line-v" fill="#FF7C18" x="74" y="12" width="1" height="18"></rect>
            <path d="M2.832,47.864 L2.64,48.584 L4.308,48.584 L4.128,47.864 C4.01599944,47.471998 3.90800052,47.0560022 3.804,46.616 C3.69999948,46.1759978 3.59600052,45.752002 3.492,45.344 L3.444,45.344 C3.34799952,45.7600021 3.2500005,46.1859978 3.15,46.622 C3.0499995,47.0580022 2.94400056,47.471998 2.832,47.864 Z M0,51.824 L2.448,44 L4.572,44 L7.02,51.824 L5.148,51.824 L4.668,49.964 L2.28,49.964 L1.8,51.824 L0,51.824 Z" id="A" fill="#FF7C18"></path>
            <path d="M58,7.824 L58,0 L63.34,0 L63.34,1.488 L59.764,1.488 L59.764,3.06 L60.844,3.06 C61.252002,3.06 61.6379982,3.09799962 62.002,3.174 C62.3660018,3.25000038 62.6839986,3.3779991 62.956,3.558 C63.2280014,3.7380009 63.4439992,3.97199856 63.604,4.26 C63.7640008,4.54800144 63.844,4.90799784 63.844,5.34 C63.844,5.78800224 63.7680008,6.16999842 63.616,6.486 C63.4639992,6.80200158 63.2540013,7.05799902 62.986,7.254 C62.7179987,7.45000098 62.4040018,7.59399954 62.044,7.686 C61.6839982,7.77800046 61.300002,7.824 60.892,7.824 L58,7.824 Z M59.764,6.456 L60.712,6.456 C61.1840024,6.456 61.5359988,6.37000086 61.768,6.198 C62.0000012,6.02599914 62.116,5.74800192 62.116,5.364 C62.116,4.99599816 61.9960012,4.73600076 61.756,4.584 C61.5159988,4.43199924 61.1640023,4.356 60.7,4.356 L59.764,4.356 L59.764,6.456 Z" id="B" fill="#FF7C18"></path>
            <path d="M79,24.824 L79,17 L81.676,17 C82.084002,17 82.4619983,17.0299997 82.81,17.09 C83.1580017,17.1500003 83.4619987,17.2559992 83.722,17.408 C83.9820013,17.5600008 84.1859993,17.7599988 84.334,18.008 C84.4820007,18.2560012 84.556,18.5679981 84.556,18.944 C84.556,19.1200009 84.5320002,19.2959991 84.484,19.472 C84.4359998,19.6480009 84.3680004,19.8119992 84.28,19.964 C84.1919996,20.1160008 84.0860006,20.2519994 83.962,20.372 C83.8379994,20.4920006 83.6960008,20.5799997 83.536,20.636 L83.536,20.684 C83.736001,20.7320002 83.9199992,20.8059995 84.088,20.906 C84.2560008,21.0060005 84.4039994,21.1319992 84.532,21.284 C84.6600006,21.4360008 84.7599996,21.613999 84.832,21.818 C84.9040004,22.022001 84.94,22.2559987 84.94,22.52 C84.94,22.920002 84.8620008,23.2639986 84.706,23.552 C84.5499992,23.8400014 84.3340014,24.0779991 84.058,24.266 C83.7819986,24.4540009 83.4600018,24.5939995 83.092,24.686 C82.7239982,24.7780005 82.3280021,24.824 81.904,24.824 L79,24.824 Z M80.764,20.132 L81.592,20.132 C82.0240022,20.132 82.337999,20.0480008 82.534,19.88 C82.730001,19.7119992 82.828,19.4880014 82.828,19.208 C82.828,18.9039985 82.728001,18.6880006 82.528,18.56 C82.327999,18.4319994 82.0200021,18.368 81.604,18.368 L80.764,18.368 L80.764,20.132 Z M80.764,23.456 L81.76,23.456 C82.7280048,23.456 83.212,23.1040035 83.212,22.4 C83.212,22.0559983 83.0920012,21.8100007 82.852,21.662 C82.6119988,21.5139993 82.2480024,21.44 81.76,21.44 L80.764,21.44 L80.764,23.456 Z" id="V" fill="#FF7C18"></path>
            <polygon id="G" fill="#FF7C18" points="59 77.824 59 70 63.932 70 63.932 71.488 60.764 71.488 60.764 77.824"></polygon>
        </g>
    </g>
</svg>