<?xml version="1.0" encoding="UTF-8"?>
<svg width="82px" height="98px" viewBox="0 0 82 98" version="1.1" xmlns="http://www.w3.org/2000/svg" xmlns:xlink="http://www.w3.org/1999/xlink">
    <!-- Generator: Sketch 47.1 (45422) - http://www.bohemiancoding.com/sketch -->
    <title>figure-p</title>
    <desc>Created with Sketch.</desc>
    <defs></defs>
    <g id="norm" stroke="none" stroke-width="1" fill="none" fill-rule="evenodd">
        <g id="figure-p">
            <path d="M2.832,47.864 L2.64,48.584 L4.308,48.584 L4.128,47.864 C4.01599944,47.471998 3.90800052,47.0560022 3.804,46.616 C3.69999948,46.1759978 3.59600052,45.752002 3.492,45.344 L3.444,45.344 C3.34799952,45.7600021 3.2500005,46.1859978 3.15,46.622 C3.0499995,47.0580022 2.94400056,47.471998 2.832,47.864 Z M0,51.824 L2.448,44 L4.572,44 L7.02,51.824 L5.148,51.824 L4.668,49.964 L2.28,49.964 L1.8,51.824 L0,51.824 Z" id="A" fill="#FF7C18"></path>
            <path d="M44,7.824 L44,0 L49.34,0 L49.34,1.488 L45.764,1.488 L45.764,3.06 L46.844,3.06 C47.252002,3.06 47.6379982,3.09799962 48.002,3.174 C48.3660018,3.25000038 48.6839986,3.3779991 48.956,3.558 C49.2280014,3.7380009 49.4439992,3.97199856 49.604,4.26 C49.7640008,4.54800144 49.844,4.90799784 49.844,5.34 C49.844,5.78800224 49.7680008,6.16999842 49.616,6.486 C49.4639992,6.80200158 49.2540013,7.05799902 48.986,7.254 C48.7179987,7.45000098 48.4040018,7.59399954 48.044,7.686 C47.6839982,7.77800046 47.300002,7.824 46.892,7.824 L44,7.824 Z M45.764,6.456 L46.712,6.456 C47.1840024,6.456 47.5359988,6.37000086 47.768,6.198 C48.0000012,6.02599914 48.116,5.74800192 48.116,5.364 C48.116,4.99599816 47.9960012,4.73600076 47.756,4.584 C47.5159988,4.43199924 47.1640023,4.356 46.7,4.356 L45.764,4.356 L45.764,6.456 Z" id="B" fill="#FF7C18"></path>
            <path d="M11,12 L82,12 L82,83 L11,83 L11,12 Z M34.075,47.5 L34.075,83 L58.925,83 L58.925,47.5 L34.075,47.5 Z" id="figure" fill="#E6E6E6"></path>
            <polygon id="G" fill="#FF7C18" points="38 68.824 38 61 42.932 61 42.932 62.488 39.764 62.488 39.764 68.824"></polygon>
            <path d="M68,94.824 L68,87 L70.676,87 C71.084002,87 71.4619983,87.0299997 71.81,87.09 C72.1580017,87.1500003 72.4619987,87.2559992 72.722,87.408 C72.9820013,87.5600008 73.1859993,87.7599988 73.334,88.008 C73.4820007,88.2560012 73.556,88.5679981 73.556,88.944 C73.556,89.1200009 73.5320002,89.2959991 73.484,89.472 C73.4359998,89.6480009 73.3680004,89.8119992 73.28,89.964 C73.1919996,90.1160008 73.0860006,90.2519994 72.962,90.372 C72.8379994,90.4920006 72.6960008,90.5799997 72.536,90.636 L72.536,90.684 C72.736001,90.7320002 72.9199992,90.8059995 73.088,90.906 C73.2560008,91.0060005 73.4039994,91.1319992 73.532,91.284 C73.6600006,91.4360008 73.7599996,91.613999 73.832,91.818 C73.9040004,92.022001 73.94,92.2559987 73.94,92.52 C73.94,92.920002 73.8620008,93.2639986 73.706,93.552 C73.5499992,93.8400014 73.3340014,94.0779991 73.058,94.266 C72.7819986,94.4540009 72.4600018,94.5939995 72.092,94.686 C71.7239982,94.7780005 71.3280021,94.824 70.904,94.824 L68,94.824 Z M69.764,90.132 L70.592,90.132 C71.0240022,90.132 71.337999,90.0480008 71.534,89.88 C71.730001,89.7119992 71.828,89.4880014 71.828,89.208 C71.828,88.9039985 71.728001,88.6880006 71.528,88.56 C71.327999,88.4319994 71.0200021,88.368 70.604,88.368 L69.764,88.368 L69.764,90.132 Z M69.764,93.456 L70.76,93.456 C71.7280048,93.456 72.212,93.1040035 72.212,92.4 C72.212,92.0559983 72.0920012,91.8100007 71.852,91.662 C71.6119988,91.5139993 71.2480024,91.44 70.76,91.44 L69.764,91.44 L69.764,93.456 Z" id="V" fill="#FF7C18"></path>
            <rect id="line-b" fill="#FF7C18" x="12" y="12" width="70" height="1"></rect>
            <rect id="line-d" fill="#FF7C18" x="11" y="82" width="23" height="1"></rect>
            <rect id="line-v" fill="#FF7C18" x="59" y="82" width="23" height="1"></rect>
            <rect id="line-a" fill="#FF7C18" x="11" y="12" width="1" height="71"></rect>
            <rect id="line-g" fill="#FF7C18" x="33" y="47" width="1" height="36"></rect>
            <path d="M20.728,94.824 L20.728,97.08 L19.156,97.08 L19,94.44 L19,93.336 L19.36,93.336 C19.4480004,93.3039998 19.5379995,93.2340005 19.63,93.126 C19.7220005,93.0179995 19.8159995,92.860001 19.912,92.652 C20.0080005,92.443999 20.1039995,92.1740017 20.2,91.842 C20.2960005,91.5099983 20.3879996,91.1080024 20.476,90.636 C20.5400003,90.2919983 20.5979997,89.9800014 20.65,89.7 C20.7020003,89.4199986 20.7519998,89.1420014 20.8,88.866 C20.8480002,88.5899986 20.8979997,88.3040015 20.95,88.008 C21.0020003,87.7119985 21.0599997,87.3760019 21.124,87 L25.768,87 L25.768,93.336 L26.728,93.336 L26.728,94.44 L26.572,97.08 L25,97.08 L25,94.824 L20.728,94.824 Z M22.06,90.864 C21.9559995,91.3920026 21.8400006,91.859998 21.712,92.268 C21.5839994,92.676002 21.4280009,93.0319985 21.244,93.336 L24.004,93.336 L24.004,88.488 L22.492,88.488 C22.4519998,88.7200012 22.4160002,88.9299991 22.384,89.118 C22.3519998,89.3060009 22.3200002,89.4899991 22.288,89.67 C22.2559998,89.8500009 22.2220002,90.0339991 22.186,90.222 C22.1499998,90.4100009 22.1080002,90.6239988 22.06,90.864 Z" id="D" fill="#FF7C18"></path>
        </g>
    </g>
</svg>