<?xml version="1.0" encoding="UTF-8"?>
<svg width="112px" height="76px" viewBox="0 0 112 76" version="1.1" xmlns="http://www.w3.org/2000/svg" xmlns:xlink="http://www.w3.org/1999/xlink">
    <!-- Generator: Sketch 47.1 (45422) - http://www.bohemiancoding.com/sketch -->
    <title>figure-difficult</title>
    <desc>Created with Sketch.</desc>
    <defs></defs>
    <g id="norm" stroke="none" stroke-width="1" fill="none" fill-rule="evenodd">
        <g id="figure-difficult">
            <path d="M2.832,31.864 L2.64,32.584 L4.308,32.584 L4.128,31.864 C4.01599944,31.471998 3.90800052,31.0560022 3.804,30.616 C3.69999948,30.1759978 3.59600052,29.752002 3.492,29.344 L3.444,29.344 C3.34799952,29.7600021 3.2500005,30.1859978 3.15,30.622 C3.0499995,31.0580022 2.94400056,31.471998 2.832,31.864 Z M0,35.824 L2.448,28 L4.572,28 L7.02,35.824 L5.148,35.824 L4.668,33.964 L2.28,33.964 L1.8,35.824 L0,35.824 Z" id="A" fill="#FF7C18"></path>
            <path d="M59,75.824 L59,68 L64.34,68 L64.34,69.488 L60.764,69.488 L60.764,71.06 L61.844,71.06 C62.252002,71.06 62.6379982,71.0979996 63.002,71.174 C63.3660018,71.2500004 63.6839986,71.3779991 63.956,71.558 C64.2280014,71.7380009 64.4439992,71.9719986 64.604,72.26 C64.7640008,72.5480014 64.844,72.9079978 64.844,73.34 C64.844,73.7880022 64.7680008,74.1699984 64.616,74.486 C64.4639992,74.8020016 64.2540013,75.057999 63.986,75.254 C63.7179987,75.450001 63.4040018,75.5939995 63.044,75.686 C62.6839982,75.7780005 62.300002,75.824 61.892,75.824 L59,75.824 Z M60.764,74.456 L61.712,74.456 C62.1840024,74.456 62.5359988,74.3700009 62.768,74.198 C63.0000012,74.0259991 63.116,73.7480019 63.116,73.364 C63.116,72.9959982 62.9960012,72.7360008 62.756,72.584 C62.5159988,72.4319992 62.1640023,72.356 61.7,72.356 L60.764,72.356 L60.764,74.456 Z" id="B" fill="#FF7C18"></path>
            <polygon id="figure" fill="#E6E6E6" points="53.3839286 0 112 24.5479452 102.080357 64.1232877 33.5446429 64 11 42.9589041"></polygon>
            <rect id="line-b" fill="#FF7C18" x="11" y="63" width="101" height="1"></rect>
            <rect id="line-a" fill="#FF7C18" x="11" y="0" width="1" height="64"></rect>
        </g>
    </g>
</svg>