<svg xmlns="http://www.w3.org/2000/svg" width="284" height="120" viewBox="0 0 284 120">
    <path fill="none" fill-rule="evenodd" stroke="#FF7C18" d="M51.32 116.5h18.44V86.98h14.4V71.96h-14.4V3.02H45.874L.74 73.586V86.98h50.58v29.52zm0-44.54H19.835l.507-.774L41.2 39.363c1.68-3.12 3.3-6.12 4.86-9.001a201.974 201.974 0 0 0 4.49-8.798l.135-.284h1.572l-.038.536c-.24 3.354-.45 7.309-.63 11.864-.18 4.554-.269 8.507-.269 11.86v26.42zm91.1 46.7c11.833 0 21.158-5.046 28.026-15.17 6.896-10.166 10.354-24.922 10.354-44.27 0-19.226-3.457-33.77-10.35-43.634C163.583 5.76 154.256.86 142.42.86c-11.837 0-21.164 4.87-28.031 14.638-6.892 9.803-10.349 24.376-10.349 43.722 0 19.348 3.458 34.104 10.354 44.27 6.868 10.124 16.193 15.17 28.026 15.17zm0-15.2c-2.856 0-5.5-.778-7.92-2.33-2.425-1.554-4.493-4.115-6.21-7.673-1.703-3.526-3.035-8.069-4.003-13.631-.965-5.552-1.447-12.42-1.447-20.606 0-8.067.482-14.845 1.448-20.337.967-5.504 2.3-9.958 4.005-13.367 1.72-3.44 3.792-5.883 6.223-7.317 2.417-1.425 5.055-2.139 7.904-2.139s5.487.714 7.904 2.14c2.431 1.433 4.503 3.876 6.223 7.316 1.704 3.409 3.038 7.863 4.005 13.367.966 5.492 1.448 12.27 1.448 20.337 0 8.187-.482 15.054-1.447 20.606-.968 5.562-2.3 10.105-4.003 13.631-1.717 3.558-3.785 6.12-6.21 7.674-2.42 1.551-5.064 2.329-7.92 2.329zM250 116.5h18.44V86.98h14.4V71.96h-14.4V3.02h-23.886L199.42 73.586V86.98H250v29.52zm-30.978-45.314l20.858-31.823c1.68-3.12 3.3-6.12 4.86-9.001a201.974 201.974 0 0 0 4.49-8.798l.135-.284h1.572l-.038.536c-.24 3.354-.45 7.309-.63 11.864-.18 4.554-.269 8.507-.269 11.86v26.42h-31.485l.507-.774z"/>
</svg>
