<svg xmlns="http://www.w3.org/2000/svg" width="83" height="65" viewBox="0 0 83 65">
    <path fill="#FF7C18" fill-rule="evenodd" d="M82.08 1.44C62.208 4.032 48.96 18.144 48.96 43.776c0 12.672 6.912 20.448 17.28 20.448 9.792 0 15.84-6.624 15.84-16.128 0-9.504-5.76-15.552-14.4-15.84 0-8.928 5.472-14.688 14.4-16.128V1.44zM33.12 0C13.248 2.592 0 18.72 0 43.776 0 56.16 6.624 64.224 17.28 64.224c9.792 0 15.84-6.624 15.84-16.128 0-9.504-5.76-15.552-14.4-15.84 0-9.216 5.76-16.128 14.4-17.568V0z"/>
</svg>
