<svg xmlns="http://www.w3.org/2000/svg" xmlns:xlink="http://www.w3.org/1999/xlink" width="380" height="420" viewBox="0 0 380 420">
    <defs>
        <path id="a" d="M0 0h380v420H0z"/>
    </defs>
    <g fill="none" fill-rule="evenodd">
        <mask id="b" fill="#fff">
            <use xlink:href="#a"/>
        </mask>
        <path stroke="#939393" stroke-width="2" d="M1 1h378v418H1z"/>
        <g stroke="#939393" stroke-width="2" mask="url(#b)">
            <path d="M1 1h18v138H1zM127 1h18v138h-18zM91 1h18v76H91zM217 1h18v76h-18zM37 1h18v190H37zM163 1h18v190h-18zM1 361h18v138H1zM127 361h18v138h-18zM91 359h18v140H91zM217 359h18v140h-18zM37 309h18v190H37zM163 309h18v190h-18zM1 139h18v222H1zM127 139h18v222h-18zM91 77h18v282H91zM217 77h18v282h-18zM37 191h18v118H37zM163 191h18v118h-18zM19 1h18v248H19zM145 1h18v248h-18zM109 1h18v216h-18zM235 1h18v216h-18zM55 1h18v388H55zM181 1h18v388h-18zM73 111h18v388H73zM199 111h18v388h-18zM19 249h18v250H19zM145 249h18v250h-18zM109 217h18v282h-18zM235 217h18v282h-18zM55 389h18v110H55zM181 389h18v110h-18zM73 1h18v110H73zM199 1h18v110h-18zM253 1h18v138h-18zM343 1h18v76h-18zM289 1h18v190h-18zM253 361h18v138h-18zM343 359h18v140h-18zM289 309h18v190h-18zM253 139h18v222h-18zM343 77h18v282h-18zM289 191h18v118h-18zM271 1h18v248h-18zM361 1h18v216h-18zM307 1h18v388h-18zM325 111h18v388h-18zM271 249h18v250h-18zM361 217h18v282h-18zM307 389h18v110h-18zM325 1h18v110h-18zM379 1h18v138h-18zM379 361h18v138h-18zM379 139h18v222h-18z"/>
        </g>
    </g>
</svg>
