<svg xmlns="http://www.w3.org/2000/svg" width="37" height="51" viewBox="0 0 37 51">
    <g fill="none" fill-rule="evenodd">
        <path fill="#000" d="M2.207 38.066v.68l.001 7.885c0 1.05.304 1.357 1.375 1.357 4.247.002 8.495-.005 12.742.01.463.002.632-.103.628-.6-.023-2.926-.01-5.85-.014-8.775 0-.182-.024-.365-.038-.557H2.207zm32.536.008H19.17v9.882c.126.012.21.027.295.027 4.702.003 9.404.008 14.106.001.828 0 1.167-.364 1.171-1.196.007-1.759.002-3.518.002-5.277v-3.437zM2.237 35.827c.188.014.31.031.43.031 4.597.002 9.194-.004 13.793.013.477.002.485-.239.484-.584-.006-3.379-.004-6.758-.006-10.137 0-.15-.023-.302-.035-.453H2.237v11.13zm16.938-.016h15.55V24.695h-15.55v11.116zm15.568-13.369v-.597c0-6.06 0-12.122-.003-18.183 0-1.203-.262-1.457-1.484-1.458H3.631c-1.14 0-1.424.283-1.424 1.415v18.823h32.536zM.03 25.097c0-7.124.046-14.249-.03-21.373C-.02 1.748 1.74-.01 3.724 0c9.86.054 19.718.024 29.578.024 2.098 0 3.62 1.528 3.62 3.618-.004 6.323-.002 12.647-.002 18.97v12.676c0 3.79.001 7.578 0 11.368a3.504 3.504 0 0 1-3.515 3.513H3.565c-1.992 0-3.536-1.544-3.537-3.54-.003-7.178 0-14.355 0-21.532H.03z"/>
        <path fill="#000" d="M6.843 9.966v5.631h22.256c.014-.187.034-.339.035-.49.003-1.552-.012-3.102.012-4.652.007-.426-.143-.524-.543-.524-7.073.012-14.147.01-21.22.011-.17.001-.34.015-.54.024M18.01 7.76h11.912c1.046 0 1.445.477 1.43 1.516-.032 2.351-.013 4.702-.021 7.053-.001.26-.01.53-.078.775-.14.496-.564.725-1.304.726-2.543.005-5.085.005-7.627.005H6.125c-1.17 0-1.503-.326-1.503-1.475V9.15c0-1.033.354-1.39 1.372-1.39H18.01M26.964 31.257l-3.13-.001c-.772-.002-1.244-.423-1.238-1.096.006-.676.469-1.081 1.252-1.082 2.086-.003 4.173-.003 6.26 0 .777 0 1.26.413 1.268 1.069.008.683-.474 1.105-1.283 1.109-1.043.005-2.086 0-3.13 0M10.251 31.31c0 .654.005 1.294-.001 1.935-.008.775-.426 1.253-1.09 1.258-.683.006-1.083-.443-1.089-1.238-.006-.641-.001-1.282-.001-2.011-.771 0-1.495.016-2.217-.004-.876-.024-1.386-.902-.955-1.627.221-.372.56-.551 1.002-.545.694.008 1.388.002 2.169.002 0-.68-.002-1.317.001-1.955.004-.844.387-1.3 1.083-1.296.689.003 1.09.479 1.098 1.302.005.592.006 1.183.011 1.775.001.032.02.064.057.174.627 0 1.282-.002 1.937 0 .819.003 1.29.413 1.279 1.107-.011.67-.474 1.062-1.268 1.068l-1.829.009c-.033 0-.066.015-.187.047M27 42.34c-1.063 0-2.123.004-3.184 0-.776-.005-1.227-.422-1.217-1.11.01-.66.462-1.064 1.212-1.065 2.122-.004 4.243-.005 6.365 0 .726.002 1.2.44 1.2 1.086.002.646-.469 1.083-1.195 1.087-1.06.007-2.12.002-3.182.002M27.026 44.636c1.043 0 2.085-.005 3.128.002.756.005 1.21.406 1.223 1.055.01.663-.473 1.119-1.229 1.12-2.103.009-4.207.008-6.31.002-.776-.002-1.24-.426-1.239-1.101 0-.685.442-1.072 1.245-1.077 1.06-.005 2.12-.001 3.181-.001M7.575 43.567c-.516-.516-.987-.98-1.449-1.452-.515-.527-.548-1.162-.097-1.623.45-.458 1.105-.454 1.62.063.477.479.91 1.003 1.408 1.559.586-.576 1.052-1.036 1.52-1.492.575-.561 1.23-.607 1.697-.123.445.46.387 1.12-.149 1.662-.429.433-.864.86-1.295 1.29-.024.024-.034.06-.077.137.467.464.94.944 1.423 1.414.311.3.511.68.356 1.075a1.641 1.641 0 0 1-.67.785c-.388.216-.829.1-1.146-.233-.49-.518-.956-1.058-1.547-1.716-.565.619-.995 1.119-1.455 1.589-.535.545-1.205.59-1.66.148-.495-.48-.449-1.124.124-1.698.454-.455.912-.905 1.397-1.385"/>
        <path d="M-22-15h80v80h-80z"/>
    </g>
</svg>
