<svg xmlns="http://www.w3.org/2000/svg" width="28" height="31" viewBox="0 0 28 31">
    <g fill="none" fill-rule="evenodd">
        <g fill="#939393">
            <path d="M12.79 14.202c-.735 0-1.356.628-1.356 1.372 0 .743.62 1.37 1.356 1.37.761 0 1.356-.602 1.356-1.37 0-.744-.62-1.372-1.356-1.372zM2.637 15.316c-1.208 1.274-1.203 3.294.002 4.511l5.506 5.568c.616.597 1.41.92 2.246.92.843 0 1.63-.327 2.217-.92l8.318-8.411L13.75 9.78v2.831l.41.214a3.09 3.09 0 0 1 1.664 2.749c0 1.662-1.389 3.066-3.033 3.066s-3.033-1.404-3.033-3.066c0-1.202.732-2.304 1.863-2.81l.452-.201V8.075l-1.158-1.17-8.277 8.41zM10.357 28a4.836 4.836 0 0 1-3.415-1.43l-5.506-5.567a4.868 4.868 0 0 1 0-6.905L9.712 5.73 8.578 4.583a.862.862 0 0 1-.257-.609c0-.224.091-.44.257-.608a.848.848 0 0 1 .602-.26c.222 0 .436.093.601.26l2.29 2.317V.847c0-.467.377-.847.839-.847.462 0 .839.38.839.847v6.49l10.995 11.118a.864.864 0 0 1 .256.608c0 .225-.09.441-.256.608a.815.815 0 0 1-.582.26.81.81 0 0 1-.58-.26l-1.505-1.456-8.304 8.354c-.9.91-2.145 1.431-3.417 1.431zM23.275 26.31l-.027.033c-.3.371-.454.775-.454 1.2 0 .502.172.928.512 1.262.319.316.778.496 1.26.496.483 0 .942-.18 1.26-.495.636-.695.666-1.764.098-2.464l-.027-.033-1.31-1.293-1.312 1.293zm1.23 4.69c-.937 0-1.79-.354-2.469-1.023-.678-.669-1.036-1.51-1.036-2.434 0-.924.358-1.766 1.036-2.435l1.875-1.85a.877.877 0 0 1 .615-.258c.226 0 .445.092.614.259l1.827 1.843A3.331 3.331 0 0 1 28 27.506a3.418 3.418 0 0 1-1.026 2.471A3.455 3.455 0 0 1 24.505 31z"/>
        </g>
        <path d="M-6-5h40v40H-6z"/>
    </g>
</svg>
