<svg xmlns="http://www.w3.org/2000/svg" width="40" height="56" viewBox="0 0 40 56">
    <g fill="none" fill-rule="evenodd">
        <path fill="#000" d="M37.56 49.14c-.078 0-.158-.002-.24-.01a8.362 8.362 0 0 0-.653-.022l-.96.012-.244-.003c-.753-.018-1.277-.505-1.274-1.182.004-.675.52-1.14 1.285-1.154h1.187V2.379H2.371v44.4h14.521c.648.002 1.05.264 1.227.804.164.502-.002 1.024-.405 1.27a1.712 1.712 0 0 1-.828.253c-3.004.012-6.009.016-9.012.016l-6.566-.005C.228 49.115 0 48.38 0 47.765V1.41C0 .43.426.012 1.425.01h13.831c7.46 0 14.918 0 22.378-.01.663 0 1.075.248 1.401.85v47.446c-.32.583-.78.845-1.475.845"/>
        <path fill="#000" d="M26.181 35.743c-2.559 0-4.65 2.085-4.664 4.65a4.655 4.655 0 0 0 1.365 3.33 4.632 4.632 0 0 0 3.306 1.378 4.676 4.676 0 0 0 4.66-4.675c0-2.569-2.083-4.669-4.642-4.683h-.025zm-2.974 16.794l1.25-.745c.347-.206.673-.399.994-.602.256-.162.497-.24.735-.24.243 0 .49.081.755.25.316.2.641.39.981.587l1.236.73v-5.679l-.658.218a7.365 7.365 0 0 1-2.313.385c-.764 0-1.546-.13-2.323-.386l-.657-.217v5.7zm6.818 3.255l-.763-.457c-.82-.49-1.64-.98-2.45-1.487a1.156 1.156 0 0 0-.62-.196c-.275 0-.498.117-.644.206-.817.501-1.64.99-2.466 1.48l-.764.454h-.636c-.627-.317-.867-.81-.852-1.726.048-2.72.028-5.487.008-8.16l-.002-.224a2.273 2.273 0 0 0-.36-1.175c-1.677-2.585-1.754-5.2-.229-7.777a6.732 6.732 0 0 1 5.84-3.326c.428 0 .861.041 1.286.12 2.954.555 4.838 2.315 5.602 5.232.524 2.002.16 3.942-1.08 5.765-.227.332-.36.754-.364 1.131v.122c-.02 2.743-.04 5.58.004 8.371.014.882-.23 1.353-.866 1.647h-.644zM8.106 19.061c-.978-.001-1.249-.455-1.368-.797a1.15 1.15 0 0 1 .124-1.043c.21-.304.561-.484.965-.494.581-.015 1.163-.02 1.745-.02l2.075.006h7.361l12.027.006c.493.001.911.196 1.147.536.206.298.243.666.104 1.038-.19.515-.633.765-1.347.766l-17.695.004-5.138-.002zM7.989 10.69c-.491 0-.906-.196-1.141-.538-.207-.3-.243-.67-.102-1.042.19-.503.628-.758 1.3-.76l23.039-.002c.744.02 1.282.517 1.282 1.18 0 .69-.511 1.157-1.27 1.16-1.32.006-2.64.008-3.96.008 0 0-17.44-.002-19.148-.005M7.99 27.399c-.488 0-.904-.197-1.14-.54-.208-.301-.244-.672-.103-1.043.235-.62.803-.75 1.238-.751l23.111.004c.463 0 .874.207 1.1.553.203.31.23.694.074 1.05-.219.5-.605.733-1.216.733 0 0-20.329-.003-23.064-.006M7.934 35.738c-.75-.007-1.272-.484-1.269-1.158.003-.675.538-1.17 1.271-1.173 1.055-.006 2.11-.008 3.165-.008 1.104 0 2.21.003 3.313.007.75.004 1.254.476 1.253 1.174 0 .697-.494 1.15-1.258 1.158-.435.004-2.284.004-2.284.004H9.203c-.423 0-.846 0-1.269-.004"/>
        <path d="M-20-13h80v80h-80z"/>
    </g>
</svg>
