<svg xmlns="http://www.w3.org/2000/svg" width="45" height="51" viewBox="0 0 45 51">
    <g fill="none" fill-rule="evenodd">
        <path fill="#000" d="M21.972 2.418c-3.603 0-4.671 1.634-5.527 3.454L16 6.815l1.014-.244a22.529 22.529 0 0 1 5.262-.649c1.59 0 3.231.187 4.881.554l1.067.238-.519-.963c-1.051-1.952-2.078-3.333-5.733-3.333zm.304 13.869c1.336 0 2.671.232 3.966.689l.338.12 5.017-6.428-.55-.272a19.645 19.645 0 0 0-8.771-2.055c-3.061 0-6.013.691-8.775 2.055l-.55.272 5.018 6.428.339-.12a11.9 11.9 0 0 1 3.968-.689zm6.497 1.927l.423.304c.581.417 1.071.828 1.501 1.258.425.426.836.917 1.254 1.501l.302.424 6.27-4.895-.291-.392a19.886 19.886 0 0 0-1.918-2.257 19.93 19.93 0 0 0-2.257-1.918l-.392-.29-4.892 6.265zm-18.281-5.975a20.168 20.168 0 0 0-2.257 1.918 20.034 20.034 0 0 0-1.918 2.258l-.289.392 6.267 4.894.303-.424c.417-.583.828-1.074 1.255-1.501.429-.429.919-.84 1.5-1.258l.422-.304-4.892-6.265-.391.29zm-6.018 7.185a19.648 19.648 0 0 0-2.056 8.773c0 3.061.692 6.012 2.056 8.773l.271.551 6.434-5.023-.119-.339a11.987 11.987 0 0 1 0-7.923l.119-.339-6.434-5.023-.271.55zm28.896 4.473l.12.338a12.013 12.013 0 0 1 0 7.923l-.12.339 6.434 5.024.272-.551a19.657 19.657 0 0 0 2.055-8.773c0-3.058-.692-6.01-2.056-8.773l-.272-.55-6.433 5.023zm-11.094-5.191a9.434 9.434 0 0 0-6.713 2.78c-3.7 3.7-3.7 9.722 0 13.423a9.427 9.427 0 0 0 6.711 2.774 9.431 9.431 0 0 0 6.713-2.774c3.699-3.701 3.699-9.722 0-13.423a9.431 9.431 0 0 0-6.711-2.78zm9.675 16.411a11.879 11.879 0 0 1-1.254 1.501c-.426.426-.917.837-1.502 1.256l-.424.303 4.895 6.268.392-.29a20.165 20.165 0 0 0 2.256-1.917 20.08 20.08 0 0 0 1.918-2.258l.291-.392-6.269-4.895-.303.424zM6.027 39.588l.291.392a20.017 20.017 0 0 0 1.917 2.258 20.061 20.061 0 0 0 2.257 1.917l.391.29 4.895-6.268-.424-.304a11.879 11.879 0 0 1-1.501-1.254 11.882 11.882 0 0 1-1.255-1.502l-.303-.424-6.268 4.895zm6.924 6.138l.55.272a19.646 19.646 0 0 0 8.775 2.055c3.059 0 6.01-.691 8.771-2.055l.551-.272-5.024-6.433-.339.12c-1.3.456-2.632.688-3.959.688-1.328 0-2.662-.232-3.963-.689l-.339-.119-5.023 6.433zm9.325 4.746a22.131 22.131 0 0 1-15.751-6.524C2.318 39.739 0 34.146 0 28.197a22.132 22.132 0 0 1 6.525-15.75 22.306 22.306 0 0 1 5.808-4.171l.087-.043.064-.073c.577-.651 1.001-1.602 1.375-2.44C14.992 3.171 16.402 0 21.972 0c5.464 0 6.934 2.814 8.229 5.296.49.937 1.043 1.997 1.862 2.869l.06.065.08.04a22.291 22.291 0 0 1 5.821 4.177 22.126 22.126 0 0 1 6.525 15.75 22.13 22.13 0 0 1-6.525 15.751 22.126 22.126 0 0 1-15.748 6.524z"/>
        <path d="M-18-15h80v80h-80z"/>
    </g>
</svg>
