<svg xmlns="http://www.w3.org/2000/svg" width="51" height="54" viewBox="0 0 51 54">
    <g fill="none" fill-rule="evenodd">
        <path fill="#000" d="M13.77 10.04c-.503 0-.959-.286-1.16-.728l-2.488-4.978a1.25 1.25 0 0 1-.093-.998c.106-.32.335-.576.644-.72.152-.076.309-.117.474-.125h.004c.546 0 1.012.288 1.249.734l2.484 4.966c.169.319.201.672.092.999-.106.32-.335.576-.644.72-.182.09-.354.13-.562.13zm11.386 0a1.262 1.262 0 0 1-1.291-1.292V1.291c0-.736.554-1.291 1.291-1.291.736 0 1.291.555 1.291 1.291v7.457c0 .737-.555 1.292-1.291 1.292zm11.385 0c-.185 0-.399-.049-.558-.128-.608-.304-.856-1.078-.553-1.725l2.483-4.967c.24-.449.697-.73 1.191-.73.226.009.383.05.529.124.608.304.856 1.078.554 1.725l-2.483 4.967c-.205.449-.66.734-1.163.734zM15.362 24.905a2.288 2.288 0 0 1-2.285-2.285 2.288 2.288 0 0 1 2.285-2.286 2.288 2.288 0 0 1 2.285 2.286 2.288 2.288 0 0 1-2.285 2.285zm16.558 3.034l3.124 4.426h11.974l-9.319-13.242c-.543-.76-1.343-1.178-2.252-1.178-.626 0-1.219.204-1.714.589l-.383.298.482.059c1.972.24 3.403 1.808 3.403 3.729 0 2.083-1.738 3.777-3.876 3.777h-.353l-1.086 1.542zM15.362 17.895c-.91 0-1.71.419-2.252 1.178L2.582 34.04v14.531c0 1.456 1.253 2.686 2.737 2.686h20.085c1.509 0 2.736-1.205 2.736-2.686V34.04L17.614 19.074c-.543-.76-1.343-1.179-2.252-1.179zm15.36 30.676c0 .875-.192 1.68-.572 2.392l-.156.294H45.49c1.508 0 2.735-1.205 2.735-2.686V34.898H30.722v13.673zM5.319 53.84C2.386 53.84 0 51.477 0 48.571V33.607c0-.321.063-.543.205-.72l10.794-15.323c1.022-1.409 2.653-2.251 4.363-2.251 1.709 0 3.34.842 4.362 2.253l5.679 8.085.91-1.275a1.352 1.352 0 0 1 1.08-.562h5.966c.714 0 1.294-.536 1.294-1.194 0-.659-.58-1.195-1.294-1.195h-8.153a1.262 1.262 0 0 1-1.292-1.291c0-.736.555-1.291 1.292-1.291h4.975l.904-1.278c1.021-1.41 2.652-2.252 4.362-2.252s3.341.842 4.362 2.253l10.797 15.446h.017l.094.14c-.009.03.02.085.037.122v.083l.063.143c-.009 0-.009.067-.009.107v14.964c0 2.906-2.386 5.269-5.318 5.269H5.319z"/>
        <path d="M-15-13h80v80h-80z"/>
    </g>
</svg>
