<svg xmlns="http://www.w3.org/2000/svg" width="31" height="33" viewBox="0 0 31 33">
    <g fill="none" fill-rule="evenodd">
        <path fill="#939393" d="M8.4 6.125a.774.774 0 0 1-.707-.444L6.175 2.644a.762.762 0 0 1-.057-.609.737.737 0 0 1 .393-.44.715.715 0 0 1 .289-.075h.002a.85.85 0 0 1 .762.447l1.516 3.03c.103.194.122.41.056.61a.737.737 0 0 1-.393.438.734.734 0 0 1-.343.08zm6.946 0a.77.77 0 0 1-.788-.788V.787A.77.77 0 0 1 15.346 0a.77.77 0 0 1 .788.788v4.549a.77.77 0 0 1-.788.788zm6.945 0a.814.814 0 0 1-.34-.078c-.371-.186-.522-.658-.338-1.053l1.515-3.03a.829.829 0 0 1 .727-.445.74.74 0 0 1 .322.076c.371.185.523.657.338 1.052l-1.514 3.03a.775.775 0 0 1-.71.448zm-12.92 9.068a1.395 1.395 0 0 1 0-2.789 1.395 1.395 0 0 1 0 2.788zm10.101 1.85l1.906 2.7h7.304l-5.684-8.077a1.654 1.654 0 0 0-1.374-.719c-.382 0-.744.124-1.046.36l-.233.181.294.036c1.203.147 2.076 1.103 2.076 2.275 0 1.27-1.06 2.304-2.365 2.304h-.215l-.663.94zm-10.1-6.126c-.556 0-1.044.255-1.374.718l-6.423 9.13v8.865c0 .888.764 1.638 1.67 1.638h12.252c.92 0 1.67-.735 1.67-1.638v-8.865l-6.422-9.13a1.655 1.655 0 0 0-1.374-.718zm9.37 18.713c0 .534-.118 1.025-.35 1.46l-.095.178h9.453c.92 0 1.669-.735 1.669-1.638v-8.341H18.74v8.34zM3.244 32.844C1.455 32.844 0 31.403 0 29.63V20.5c0-.195.038-.33.125-.439l6.585-9.347A3.306 3.306 0 0 1 9.37 9.34c1.043 0 2.038.514 2.661 1.375l3.465 4.932.555-.778a.825.825 0 0 1 .659-.343h3.64c.435 0 .788-.327.788-.728 0-.402-.353-.73-.789-.73h-4.974a.77.77 0 0 1-.788-.787.77.77 0 0 1 .788-.787h3.035l.552-.78a3.303 3.303 0 0 1 2.66-1.374c1.044 0 2.039.514 2.662 1.375l6.586 9.422h.01l.058.086c-.005.018.012.052.023.074v.05l.038.088c-.005 0-.005.04-.005.065v9.129c0 1.773-1.456 3.214-3.245 3.214H3.245z"/>
        <path d="M-5-4h40v40H-5z"/>
    </g>
</svg>
