<svg xmlns="http://www.w3.org/2000/svg" width="236" height="23" viewBox="0 0 236 23">
    <g fill="none" fill-rule="evenodd">
        <path fill="#000" d="M.157 2.568h8.474c4.263 0 6.706 2.183 6.706 5.9 0 3.769-2.443 6.004-6.706 6.004h-4.6v6.654H.156V2.568zm3.873 8.5h4.055c2.392 0 3.275-.91 3.275-2.548 0-1.664-.883-2.547-3.275-2.547H4.03v5.094zM30.465 15.2c-.39 1.768-1.716 2.807-3.717 2.807-3.327 0-4.913-2.729-4.913-6.16s1.586-6.16 4.913-6.16c1.897 0 3.067.753 3.509 2.287h4.055c-.624-3.405-3.457-5.744-7.564-5.744-5.64 0-8.89 3.925-8.89 9.617 0 5.692 3.224 9.617 8.89 9.617 4.34 0 7.2-2.573 7.746-6.264h-4.029zm7.434 5.926h3.873V13.33h4.419l3.613 7.797h4.002l-4.392-9.539 4.159-9.02H49.57L46.165 9.82h-4.393V2.568h-3.873v18.558zM91.999 2.568v18.558h5.042l6.836-13.23h.676v13.23h3.64V2.568h-5.225l-6.68 12.944h-.676V2.568h-3.613zm32.569 0v7.226h-8.214V2.568h-3.873v18.558h3.873v-7.771h8.214v7.771h3.872V2.568h-3.872zm21.833 0h-15.413v3.405h5.77v15.153h3.873V5.973h5.77V2.568zm6.447 15.101v-4.366h7.668v-3.38h-7.668V6.025h9.85V2.568h-13.723v18.558h14.01V17.67h-10.137zm13.438-15.101h8.474c4.262 0 6.706 2.183 6.706 5.9 0 3.769-2.444 6.004-6.706 6.004h-4.601v6.654h-3.873V2.568zm3.873 8.5h4.055c2.391 0 3.275-.91 3.275-2.548 0-1.664-.884-2.547-3.275-2.547h-4.055v5.094zm18.585 6.653h3.847c2.599 0 3.535-.987 3.535-2.755 0-1.767-.936-2.703-3.535-2.703h-3.847v5.458zm4.496 3.405h-8.37V2.568h3.874v6.29h4.496c4.367 0 6.863 2.287 6.863 6.108 0 3.873-2.496 6.16-6.863 6.16zm14.14-3.457v-4.366h7.668v-3.38h-7.667V6.025h9.85V2.568h-13.723v18.558h14.01V17.67H207.38zM220.82 2.568h8.473c4.263 0 6.707 2.183 6.707 5.9 0 3.769-2.444 6.004-6.707 6.004h-4.6v6.654h-3.873V2.568zm3.873 8.5h4.055c2.39 0 3.275-.91 3.275-2.548 0-1.664-.884-2.547-3.275-2.547h-4.055v5.094z"/>
        <path fill="#FF7C18" d="M64.715.332h2.599v22.527h-2.599zM71.646.332h2.599v22.527h-2.599zM78.578.332h2.599v22.527h-2.599z"/>
    </g>
</svg>
