<svg xmlns="http://www.w3.org/2000/svg" width="273" height="26" viewBox="0 0 273 26">
    <g fill="#696969" fill-rule="evenodd">
        <path d="M.49 2.58h9.78c4.92 0 7.74 2.52 7.74 6.81 0 4.35-2.82 6.93-7.74 6.93H4.96V24H.49V2.58zm4.47 9.81h4.68c2.76 0 3.78-1.05 3.78-2.94 0-1.92-1.02-2.94-3.78-2.94H4.96v5.88zm30.51 4.77c-.45 2.04-1.98 3.24-4.29 3.24-3.84 0-5.67-3.15-5.67-7.11 0-3.96 1.83-7.11 5.67-7.11 2.19 0 3.54.87 4.05 2.64h4.68c-.72-3.93-3.99-6.63-8.73-6.63-6.51 0-10.26 4.53-10.26 11.1 0 6.57 3.72 11.1 10.26 11.1 5.01 0 8.31-2.97 8.94-7.23h-4.65zM44.05 24h4.47v-9h5.1l4.17 9h4.62l-5.07-11.01 4.8-10.41h-4.62l-3.93 8.37h-5.07V2.58h-4.47V24zM106.49 2.58V24h5.82l7.89-15.27h.78V24h4.2V2.58h-6.03l-7.71 14.94h-.78V2.58h-4.17zm37.59 0v8.34h-9.48V2.58h-4.47V24h4.47v-8.97h9.48V24h4.47V2.58h-4.47zm25.2 0h-17.79v3.93h6.66V24h4.47V6.51h6.66V2.58zm7.44 17.43v-5.04h8.85v-3.9h-8.85v-4.5h11.37V2.58h-15.84V24h16.17v-3.99h-11.7zm15.51-17.43h9.78c4.92 0 7.74 2.52 7.74 6.81 0 4.35-2.82 6.93-7.74 6.93h-5.31V24h-4.47V2.58zm4.47 9.81h4.68c2.76 0 3.78-1.05 3.78-2.94 0-1.92-1.02-2.94-3.78-2.94h-4.68v5.88zm21.45 7.68h4.44c3 0 4.08-1.14 4.08-3.18s-1.08-3.12-4.08-3.12h-4.44v6.3zm5.19 3.93h-9.66V2.58h4.47v7.26h5.19c5.04 0 7.92 2.64 7.92 7.05 0 4.47-2.88 7.11-7.92 7.11zm16.32-3.99v-5.04h8.85v-3.9h-8.85v-4.5h11.37V2.58h-15.84V24h16.17v-3.99h-11.7zm15.51-17.43h9.78c4.92 0 7.74 2.52 7.74 6.81 0 4.35-2.82 6.93-7.74 6.93h-5.31V24h-4.47V2.58zm4.47 9.81h4.68c2.76 0 3.78-1.05 3.78-2.94 0-1.92-1.02-2.94-3.78-2.94h-4.68v5.88zM75 0h3v26h-3zM83 0h3v26h-3zM91 0h3v26h-3z"/>
    </g>
</svg>
