<svg xmlns="http://www.w3.org/2000/svg" width="49" height="49" viewBox="0 0 49 49">
    <path fill="#000" fill-rule="evenodd" d="M8.007 3.46c-1.682 0-3.087.667-4.064 1.93-1.228 1.586-1.442 3.445-.602 5.236.883 1.879 2.538 2.914 4.662 2.914h22.172c.148 0 .297-.014.455-.034l1.622-.16.074-1.64V3.462L8.007 3.46zM2.863 40.576c.001 3.172 2.146 5.302 5.335 5.302h30.58V32.562l-3.846.006c-.41 0-.818-.002-1.226-.01-.699-.014-1.298-.59-1.361-1.31-.062-.692.414-1.35 1.059-1.466.339-.06.738-.065 1.151-.065 0 0 1.227-.01 1.422-.01l2.793.004V16.395l-15.497.012c-3.308 0-6.615-.008-9.921-.03h-.218c-.648 0-1.298.018-1.948.039-.616.017-1.235.037-1.852.037-1.74 0-2.968-.162-4.106-.54l-2.367-.787s-.001 19.61.002 25.452zm4.572 8.163a1.988 1.988 0 0 0-.206-.053c-3.601-.73-5.907-2.844-7.056-6.468-.06-.187-.095-.382-.134-.575L0 41.462V7.859c.031-.111.055-.213.071-.315C.643 4.063 2.486 1.944 5.87.88c.266-.084.585-.144.923-.208.128-.024.255-.046.382-.073H33.94c1.209.48 1.259.667 1.257 2.204V13.54h4.794c1.141.003 1.672.535 1.673 1.671l.001 14.499 3.743-.002c.425 0 .847 0 1.269.003.643.006.905.253 1.062.466.103.14.212.396.328.67l.073.17v.316a5.16 5.16 0 0 0-.057.177 1.43 1.43 0 0 1-1.367 1.05c-.286.004-.572.005-.857.005l-4.195-.003s.002 11.795-.001 14.631c-.001.807-.38 1.3-1.158 1.508a1.888 1.888 0 0 0-.122.038H7.435z"/>
</svg>
