<svg xmlns="http://www.w3.org/2000/svg" width="55" height="49" viewBox="0 0 55 49">
    <g fill="none" fill-rule="evenodd">
        <path fill="#000" d="M21.355 12.285a1.04 1.04 0 0 1-.935-.592c-1.896-3.998-1.457-7.223-1.026-8.79a1.04 1.04 0 0 1 1.274-.724c.551.152.876.724.724 1.274-.354 1.289-.709 3.957.901 7.353.119.249.133.53.04.791a1.028 1.028 0 0 1-.975.688h-.003zm8.023 8.867a1.035 1.035 0 0 1-.812-.393c-5.345-6.767-5.14-13.134-3.165-16.836C26.711 1.467 28.808 0 31.011 0c.128 0 .256.005.384.015 2.238.174 4.375 2.018 4.128 5.205-.243 3.106-2.883 4.468-4.246 4.755a1.04 1.04 0 0 1-1.227-.801 1.039 1.039 0 0 1 .801-1.227c.25-.057 2.428-.613 2.605-2.887.069-.877-.137-1.626-.595-2.165a2.345 2.345 0 0 0-1.82-.82c-1.422 0-2.883 1.082-3.811 2.823-1.667 3.124-1.764 8.595 2.963 14.576a1.038 1.038 0 0 1-.813 1.678h-.002zm15.569-3.106a4.382 4.382 0 0 0-4.375 4.364c-.001.432.244.663.892 1.165.038.028.155.105.223.149.807.531 1.98.82 3.258.82 1.265 0 2.425-.283 3.182-.778.031-.019.279-.161.293-.172.651-.5.898-.73.899-1.163a4.379 4.379 0 0 0-4.362-4.385h-.01zm-31.17 4.493c.017.339.013.678-.012 1.017-.12 1.54-.692 3.033-1.702 4.437l-.227.316 8.193.019-6.278-6.309.026.52zm-4.19-7.641l13.371 13.438 4.702.011-15.715-15.793-2.358 2.344zm33.505 13.487l3.682.008.005-1.956-.233.038c-.602.1-1.131.148-1.617.148h-.001a9.684 9.684 0 0 1-1.598-.15l-.233-.039-.005 1.951zM2.073 46.297l50.824.122.007-2.925-10.636-.025a1.036 1.036 0 0 1 .002-2.072l10.639.026.023-9.81a1.127 1.127 0 0 0-.33-.802 1.127 1.127 0 0 0-.8-.335l-48.557-.115c-.626 0-1.135.507-1.136 1.131l-.024 9.81 30.033.071c.277 0 .536.109.732.306a1.037 1.037 0 0 1-.734 1.766l-30.035-.072-.008 2.924zm-1.04 2.071A1.037 1.037 0 0 1 0 47.33l.038-15.842a3.21 3.21 0 0 1 3.205-3.198l5.76.014.057-.051c.733-.651 2.459-2.43 2.641-4.877.155-2.108-.865-4.281-3.033-6.46L4.13 12.353a1.03 1.03 0 0 1-.302-.734c.001-.276.109-.536.305-.73a1.032 1.032 0 0 1 1.466.003l2.526 2.539 3.093-3.077c.196-.194.455-.3.731-.3.277 0 .538.108.734.305l17.749 17.836.06.075.163.084 10.366.025.004-2.152c.002-.341-.225-.549-.827-1.013-.677-.524-1.702-1.316-1.698-2.808.008-3.547 2.9-6.432 6.446-6.432 3.57.009 6.454 2.908 6.445 6.462-.003 1.49-.987 2.247-1.706 2.8-.605.464-.832.671-.833 1.011l-.006 2.151 2.961.007a3.179 3.179 0 0 1 2.262.945c.605.608.937 1.413.935 2.268l-.038 15.843a1.037 1.037 0 0 1-1.036 1.033l-52.897-.126z"/>
        <path d="M-12-16h80v80h-80z"/>
    </g>
</svg>
