<svg xmlns="http://www.w3.org/2000/svg" xmlns:xlink="http://www.w3.org/1999/xlink" width="56" height="49" viewBox="0 0 56 49">
    <defs>
        <path id="a" d="M0 49h56V.918H0z"/>
        <path id="c" d="M0 49.082h56V1H0z"/>
    </defs>
    <g fill="none" fill-rule="evenodd" transform="translate(0 -1)">
        <g transform="translate(0 .082)">
            <mask id="b" fill="#fff">
                <use xlink:href="#a"/>
            </mask>
            <path fill="#000" d="M53.563 46.653c.01-.194.024-.338.024-.482.005-9.148.007-18.295.025-27.442.002-.404-.172-.576-.485-.758C44.91 13.23 36.697 8.483 28.488 3.723c-.352-.204-.6-.188-.944.01-8.229 4.759-16.463 9.509-24.704 14.245-.377.217-.487.455-.486.872.01 9.055.008 18.11.008 27.165v.612h12.819v-.763-28.99c0-.221-.013-.446.019-.663.091-.641.61-1.062 1.233-1.023.605.038 1.034.483 1.073 1.123.011.202.006.405.006.609V46.633h20.983v-.746V16.84c0-.203-.008-.407.01-.608.046-.552.441-.961.98-1.034.57-.077 1.086.218 1.25.768.077.258.086.544.086.817.004 9.719.004 19.438.004 29.157v.712h12.738zM0 48.986V16.89c.164-.077.333-.144.488-.234C9.476 11.477 18.46 6.3 27.436 1.105c.444-.257.756-.243 1.19.009 8.94 5.184 17.888 10.352 26.836 15.52.172.1.358.173.538.257v14.72c-.02.365-.056.73-.056 1.097-.012 5.199-.018 10.398-.026 15.597V49H55.2L.718 49C.48 49 .24 48.99 0 48.986z" mask="url(#b)"/>
        </g>
        <path fill="#000" d="M29.138 19.833c0-.818.042-1.609-.014-2.394-.04-.573-.544-.947-1.109-.952-.546-.005-1.077.346-1.117.874-.06.815-.016 1.64-.016 2.472h2.256zm2.313 2.331h-6.903c-.014-.163-.039-.32-.039-.478-.002-1.346-.026-2.693.008-4.038.041-1.58.938-2.815 2.33-3.304a3.493 3.493 0 0 1 3.742.953c.583.64.891 1.403.904 2.261.022 1.456.008 2.913.006 4.37 0 .07-.028.14-.048.236z"/>
        <mask id="d" fill="#fff">
            <use xlink:href="#c"/>
        </mask>
        <path fill="#000" d="M46.688 38.553h2.259V31.64h-2.259zM26.946 38.583h2.249v-6.931h-2.249zM7.078 38.554h2.264v-6.911H7.078z" mask="url(#d)"/>
        <path d="M-12-15h80v80h-80z" mask="url(#d)"/>
    </g>
</svg>
