<svg xmlns="http://www.w3.org/2000/svg" width="58" height="50" viewBox="0 0 58 50">
    <g fill="none" fill-rule="evenodd">
        <path fill="#000" d="M44.343 32.187l1.205.002c.276 0 .546-.002.817-.008.132-.003.496-.069.588-.336.354-1.017.69-2.04 1.02-3.066.05-.154-.007-.288-.046-.377l-.227-.679c-.216-.657-.432-1.314-.67-1.963-.095-.259-.412-.503-.679-.522a11.142 11.142 0 0 0-.777-.024l-1.23.008v6.965zM22.311 2.901c-3.087 0-6.04.742-8.779 2.204-6.87 3.67-10.444 9.633-10.62 17.726-.06 2.772-.045 5.59-.03 8.315.007 1.19.014 2.378.015 3.567.002 4.138 2.885 7.027 7.011 7.028h31.767l.025-.523c.008-.15.015-.277.015-.404l.004-4.707c.006-4.546.012-9.093-.02-13.639a21.436 21.436 0 0 0-.426-4.189C39.428 9.37 31.454 2.901 22.311 2.901zM55.79 49.094a1.47 1.47 0 0 1-.405-.059c-.573-.163-.903-.642-.906-1.314-.005-1.272-.003-2.544-.002-3.815l.002-2.725H44.313s.002 1.353 0 1.663c-.01.984-.494 1.463-1.478 1.464l-29.586.01c-1.189 0-2.378-.003-3.567-.009-4.749-.028-8.466-3.187-9.252-7.862-.09-.538-.099-1.098-.1-1.625a926.322 926.322 0 0 0-.014-3.334C.3 28.648.282 25.71.343 22.824.54 13.601 4.676 6.812 12.64 2.648A20.897 20.897 0 0 1 22.285.3c6.7 0 13.144 3.138 17.241 8.394 3.035 3.893 4.643 8.333 4.782 13.197.002.084.031.454.031.454l.02.278 3.196.001c.906.004 1.252.258 1.547 1.131l.326.96a94.17 94.17 0 0 1 1.108 3.394c.105.353.106.805.003 1.15-.368 1.231-.79 2.471-1.2 3.671l-.272.8c-.257.756-.619 1.014-1.434 1.022-.392.004-2.073.004-2.073.004h-1.219v3.793l11.16.001c1.077.001 1.538.454 1.541 1.517v.158c.007 2.497.013 4.994-.004 7.491-.006.8-.53 1.378-1.249 1.378z"/>
        <path fill="#000" d="M22.336 12.46c-5.366 0-9.795 4.345-9.873 9.686a9.858 9.858 0 0 0 2.82 7.07c1.838 1.885 4.284 2.94 6.888 2.97h.117c5.465.001 9.808-4.309 9.886-9.812.037-2.566-.955-5.018-2.794-6.907-1.855-1.905-4.313-2.973-6.92-3.006h-.124zm-.187 22.291c-3.287-.037-6.383-1.363-8.718-3.736-2.335-2.37-3.6-5.473-3.562-8.735.079-6.83 5.655-12.388 12.43-12.388l.183.001c6.838.098 12.338 5.75 12.262 12.596-.075 6.762-5.662 12.263-12.452 12.263h-.143z"/>
        <path d="M-11-15h80v80h-80z"/>
    </g>
</svg>
