<svg xmlns="http://www.w3.org/2000/svg" width="46" height="53" viewBox="0 0 46 53">
    <g fill="none" fill-rule="evenodd">
        <path fill="#000" d="M30.008 9.907c.363 0 .671.274.893.792l1.536 3.624.101-.17c.654-1.096 1.258-2.183 1.458-3.444.18-1.128-.179-1.918-1.064-2.35-.584-.285-.847-.673-.854-1.257-.002-.16-.047-.315-.09-.464-.578-1.985-1.953-3.3-4.206-4.031-1.132-.368-2.36-.54-3.868-.54-.59 0-1.22.026-2.045.082-1.74.117-3.104.49-4.293 1.173-1.154.664-1.872 1.597-2.133 2.776-.05.223-.072.452-.095.68a8.45 8.45 0 0 1-.043.39c-.082.593-.459.94-1.062.982-.188.013-.476.207-.53.407-.342 1.224-.136 2.456.063 3.647l.021.125.127.015.146-.075.33-.39c1.311-1.57 2.855-2.366 4.587-2.366.26 0 .524.017.797.053.866.112 1.732.37 2.571.618l.425.126c.43.125.85.275 1.271.426.477.17.954.34 1.441.474.405.112.8.168 1.173.168.94 0 1.785-.355 2.516-1.056.283-.271.57-.415.827-.415zm-7.243 11.992c.468 0 .9.132 1.316.405.721.47 1.55.802 2.528 1.01.11.023.208.034.301.034.284 0 .521-.11.747-.346 1.641-1.722 2.614-3.792 2.976-6.326.014-.098.043-.201.071-.303.062-.218.125-.445.055-.64a42.596 42.596 0 0 0-.908-2.227l-.407-.955-.098.057c-.837.488-1.73.73-2.73.737h-.002c-1.389 0-2.649-.406-3.93-.86-.913-.323-1.999-.685-3.137-.928a3.464 3.464 0 0 0-.71-.076c-.934 0-1.835.41-2.677 1.222-.943.91-1.692 1.774-1.297 3.149.046.157.062.323.078.488.011.12.023.242.045.36.461 2.52 1.474 4.557 3.095 6.222.161.165.345.318.598.318a.745.745 0 0 0 .27-.054c.262-.102.528-.196.795-.291.508-.18 1.033-.365 1.526-.604.547-.264 1.036-.392 1.495-.392zm-.068 1.984a.626.626 0 0 0-.239.042c-.674.282-1.34.584-2.056.909l-.936.424.126.102c.155.125.305.256.454.387.341.298.694.606 1.09.835.47.27 1.015.549 1.515.549.053 0 .106-.004.158-.011 1.24-.162 2.278-.797 3.002-1.835l.07-.1-.81-.361c-.663-.295-1.305-.582-1.953-.854a1.121 1.121 0 0 0-.42-.087zm-5.815.713c-.086 1.673-.788 2.959-2.145 3.93l-.085.062.065.082c2.24 2.84 5.236 4.406 8.437 4.406 3.167 0 6.207-1.568 8.337-4.304l.064-.083-.085-.06c-1.548-1.094-2.304-2.35-2.38-3.953l-.01-.203-.272.228c-.27.225-.55.456-.693.76-.766 1.615-2.016 2.745-3.822 3.453a4.302 4.302 0 0 1-1.559.32 3.405 3.405 0 0 1-1.606-.407c-.65-.343-1.492-.811-2.233-1.381-.875-.674-1.413-1.52-1.599-2.515-.014-.072-.054-.128-.113-.211a3.949 3.949 0 0 1-.117-.172l-.168-.265-.016.313zm-4.548 4.846c-.062 0-.13.007-.206.022-.458.09-.942.112-1.41.133l-.252.01c-1.428.07-2.623.34-3.653.828-3.145 1.489-4.726 3.893-4.7 7.146.003.433.011.868.018 1.302.023 1.333.047 2.712-.05 4.057-.096 1.304.467 1.886 1.406 2.404 5.087 2.802 10.676 4.449 16.613 4.896.21.016.42.02.63.02.181 0 1.195-.014 1.195-.014v-15.25l-.488-.081c-.28-.046-.55-.09-.817-.148-2.95-.645-5.448-2.263-7.638-4.946-.163-.2-.334-.38-.648-.38zm21.51.109c-.322 0-.504.148-.679.369-1.9 2.407-4.24 4.006-6.954 4.75-.478.132-.967.224-1.459.317-.227.043-.762.149-.762.149v15.166l.446.005c.067 0 .131-.002.195-.008.524-.055 1.05-.101 1.574-.148 1.203-.108 2.448-.22 3.66-.418a37.428 37.428 0 0 0 13.548-5.015c.197-.121.372-.44.374-.681.027-2.593.028-4.738.003-6.752-.009-.723-.088-1.325-.24-1.841-.847-2.85-2.859-4.7-5.98-5.5-.725-.186-1.493-.231-2.235-.275-.442-.026-.885-.052-1.32-.106a1.305 1.305 0 0 0-.17-.012zM20.912 52.315l-.879-.09c-.65-.064-1.3-.128-1.95-.203-6.134-.708-11.874-2.726-17.062-5.997l-.092-.06c-.1-.064-.2-.13-.306-.185-.324-.172-.48-.444-.48-.832 0-.833-.012-1.667-.022-2.501-.025-1.914-.05-3.893.06-5.83.185-3.255 1.91-5.82 5.13-7.622 1.544-.865 3.31-1.316 5.394-1.377.818-.024 1.638-.195 2.307-.483 1.227-.527 1.86-1.505 1.88-2.906.021-1.62-.22-2.877-.782-4.076-.376-.803-.576-1.711-.769-2.59a27.27 27.27 0 0 0-.299-1.262 2.019 2.019 0 0 0-.22-.473 2.175 2.175 0 0 0-.178-.272.97.97 0 0 1-.17-.29c-.512-1.827-1.044-3.962-.874-6.153.068-.873.342-1.638.816-2.273.103-.145.167-.236.233-.263.677-.274.846-.837 1.026-1.435.46-1.526 1.404-2.64 2.912-3.497C18.162.749 19.937.264 22.014.163A42.6 42.6 0 0 1 24.096.1c1.83 0 3.22.2 4.51.648 2.976 1.033 4.754 2.887 5.437 5.67.023.093.094.325.253.44 1.64 1.198 2.137 2.862 1.522 5.089-.485 1.756-1.378 3.388-2.656 4.852-.382.437-.54.896-.694 1.338-.234.679-.495 1.348-.755 2.017a78.64 78.64 0 0 0-.469 1.22c-.082.22-.177.509-.192.804-.01.254-.006.51 0 .766.007.323.015.647-.016.967-.09.948.192 1.812.816 2.499a3.933 3.933 0 0 0 2.827 1.246l.161-.004a10.466 10.466 0 0 1 4.883.915c3.232 1.46 5.215 3.809 5.892 6.984a7.9 7.9 0 0 1 .155 1.603c.007 1.092.006 2.185.006 3.276 0 1.398-.002 2.795.013 4.192.007.592-.2.968-.718 1.297a40.533 40.533 0 0 1-10.843 4.853 40.427 40.427 0 0 1-8.73 1.459c-.118.006-.237.03-.355.055l-.148.029h-4.083z"/>
        <path fill="#000" d="M18.574 48.496a.982.982 0 0 1-.961-.99c0-.272.103-.526.292-.715a.959.959 0 0 1 .682-.284c.559.014.995.46.996.992a.985.985 0 0 1-.294.703.974.974 0 0 1-.694.294h-.021zM18.591 39.002a.99.99 0 0 1-.978-.99.959.959 0 0 1 .954-.986h.001c.578 0 1.014.43 1.015.98a1 1 0 0 1-.963.996h-.029zM18.587 43.697c-.524 0-.97-.45-.976-.98a1.01 1.01 0 0 1 .29-.723.964.964 0 0 1 .69-.29c.535.005.986.453.993.98.005.26-.103.52-.293.713a.98.98 0 0 1-.701.3h-.003zM33.465 41.389l-1.04.005c-.214 0-.43-.002-.644-.008-.63-.02-.972-.375-.962-1.003.008-.601.357-.951.959-.96a113.696 113.696 0 0 1 3.422-.001c.587.008.958.376.967.96.01.62-.334.977-.968 1.007a7.549 7.549 0 0 1-.337.006l-1.398-.006z"/>
        <path d="M-17-14h80v80h-80z"/>
    </g>
</svg>
