<svg xmlns="http://www.w3.org/2000/svg" width="28" height="28" viewBox="0 0 28 28">
    <g fill="none" fill-rule="evenodd">
        <path fill="#939393" d="M10.532 2.16a8.314 8.314 0 0 0-5.92 2.456 8.317 8.317 0 0 0-2.452 5.92c.002 4.626 3.761 8.39 8.38 8.39 4.624-.005 8.381-3.762 8.386-8.376a8.32 8.32 0 0 0-2.45-5.933 8.346 8.346 0 0 0-5.94-2.457h-.004zM26.524 27.5a9.43 9.43 0 0 0-.194-.133c-.19-.126-.369-.246-.512-.388-2.2-2.187-4.394-4.382-6.588-6.575l-1.794-1.794c-.049-.05-.41-.391-.41-.391l-.22.173a10.658 10.658 0 0 1-2.698 1.541 9.627 9.627 0 0 1-3.52.654c-2.882 0-5.7-1.259-7.54-3.366C1.58 15.538.738 13.588.544 11.424a1.186 1.186 0 0 0-.038-.195L.5 11.206V9.841c.014-.067.029-.182.043-.296.03-.234.06-.467.108-.697C1.519 4.676 4.036 1.97 8.133.805 8.51.698 8.901.642 9.314.583 9.5.557 9.685.531 9.87.5h1.349c.189.032.378.061.568.09.41.064.833.13 1.236.227 3.743.907 6.79 4.198 7.412 8.001.469 2.873-.185 5.518-1.945 7.86l-.232.318.158.236s.15.16.196.206l2.034 2.034c2.114 2.114 4.227 4.227 6.334 6.346.143.144.263.323.39.513.043.064.087.13.131.193v.328a1.017 1.017 0 0 1-.648.647h-.328z"/>
        <path d="M-6-6h40v40H-6z"/>
    </g>
</svg>
