<svg xmlns="http://www.w3.org/2000/svg" width="69" height="49" viewBox="0 0 69 49">
    <g fill="none" fill-rule="evenodd">
        <path fill="#000" d="M64.353 39.016h2.245v-2.233h-2.245v2.233zm-5.746-12.635h2.125l-1.993-15.935a5.833 5.833 0 0 0-.132.007v15.928zm-45.895 8.113H5.771v4.521h4.655c.293-1.714 1.026-3.188 2.286-4.521zm32.071 5.716c.004 3.19 2.616 5.765 5.822 5.741 3.151-.024 5.701-2.627 5.685-5.803-.015-3.158-2.608-5.715-5.783-5.705-3.16.011-5.728 2.599-5.724 5.767zm-26.376-5.766c-3.214-.001-5.805 2.582-5.791 5.77a5.764 5.764 0 0 0 5.827 5.737c3.145-.021 5.688-2.62 5.681-5.808-.007-3.112-2.601-5.699-5.717-5.699zm37.848-24.126h-4.39c-.909 0-1.818.018-2.726-.005-.631-.016-.917.232-.916.884.011 4.783.008 9.565.003 14.348 0 .454.095.86.625.864 2.456.018 4.912.008 7.404.008V10.318zM59.7 6.91H43.634v25.796c0 1.433-.299 1.737-1.704 1.737H24.021c1.224 1.368 2.029 2.824 2.284 4.572h16.278c.431-2.328 1.578-4.221 3.58-5.539 1.486-.979 3.131-1.405 4.906-1.295 3.692.227 6.543 2.839 7.423 6.827h3.543v-2.931c-.001-1.268.337-1.608 1.614-1.616h.628v-5.76h-.741c-4.738 0-9.476.003-14.214-.001-2.237-.001-3.369-1.121-3.371-3.338-.004-4.738-.003-9.476 0-14.214.002-1.878 1.226-3.105 3.097-3.107 3.278-.003 6.557 0 9.836.001h.816V6.91zM2.325 32.139h38.982V2.323H2.325v29.816zm-.813 2.304C.378 34.439.001 34.07.001 32.947V1.508C.001.378.378.001 1.502.001h40.627c1.127 0 1.501.377 1.504 1.505.002 1.018.001 2.036.001 3.088h1.249c5.239.001 10.479-.001 15.719.003.993.001 1.403.407 1.41 1.382.008.885-.03 1.772.012 2.655.037.796-.114 1.44-1.009 1.679l2.017 16.107H64.2c.359 0 .718-.003 1.077.003.899.018 1.319.426 1.33 1.317.011.957.002 1.914.002 2.871v3.82c.286.013.496.03.706.032 1.269.013 1.59.34 1.591 1.633.002 1.268.008 2.536.002 3.805-.005 1.029-.412 1.434-1.433 1.435-1.962.003-3.924 0-5.886 0h-3.051c-1.225 4.318-3.878 6.716-7.561 6.883-1.724.078-3.322-.334-4.77-1.275-2.031-1.32-3.187-3.232-3.63-5.561H26.328c-.898 4.02-3.782 6.642-7.489 6.834-1.802.093-3.461-.361-4.953-1.377-1.936-1.318-3.042-3.183-3.479-5.502h-5.49c-1.069-.001-1.471-.403-1.472-1.471-.002-1.769 0-3.538 0-5.424H1.512z"/>
        <path fill="#000" d="M17.216 40.253a1.164 1.164 0 0 0 1.176 1.1 1.163 1.163 0 0 0 1.136-1.214 1.157 1.157 0 0 0-2.312.114m1.186 3.381c-1.9.014-3.478-1.563-3.468-3.463.01-1.866 1.572-3.412 3.445-3.409a3.447 3.447 0 0 1 3.427 3.423c.006 1.873-1.537 3.437-3.404 3.45M50.567 41.35a1.154 1.154 0 0 0 1.127-1.146 1.165 1.165 0 0 0-1.184-1.164 1.155 1.155 0 0 0 .057 2.31m-3.465-1.147c.004-1.882 1.538-3.429 3.413-3.44a3.445 3.445 0 0 1 3.457 3.462c-.014 1.874-1.564 3.406-3.446 3.407-1.862.001-3.428-1.567-3.424-3.429"/>
        <path d="M-6-16h80v80H-6z"/>
    </g>
</svg>
