<svg xmlns="http://www.w3.org/2000/svg" width="21" height="12" viewBox="0 0 21 12">
    <path fill="#696969" fill-rule="evenodd" d="M20.967.885c.179.46-.37 1.532-1.645 3.217-.179.23-.408.536-.689.919-.586.715-.918 1.187-.995 1.417-.127.306-.076.6.153.88.128.154.421.46.88.92h.039v.038c1.046.944 1.747 1.749 2.104 2.412l.077.154c.025.05.05.146.076.287a.87.87 0 0 1 0 .364c-.025.102-.115.197-.268.287-.153.09-.37.134-.65.134l-2.793.076c-.179.026-.39 0-.632-.076a2.697 2.697 0 0 1-.554-.23l-.23-.153a4.407 4.407 0 0 1-.765-.69c-.28-.306-.53-.587-.746-.842a3.838 3.838 0 0 0-.67-.632c-.23-.166-.433-.223-.612-.172a.186.186 0 0 0-.096.038 1.575 1.575 0 0 0-.19.173 1.24 1.24 0 0 0-.23.325 2.402 2.402 0 0 0-.173.555c-.05.243-.076.53-.076.862 0 .102-.013.198-.038.287-.026.09-.051.16-.077.21l-.038.04c-.153.152-.357.229-.612.229h-1.225c-.535.05-1.077 0-1.626-.153a5.914 5.914 0 0 1-1.435-.594 13.975 13.975 0 0 1-1.11-.728 6.718 6.718 0 0 1-.764-.631l-.268-.268a1.679 1.679 0 0 1-.306-.307 46.172 46.172 0 0 1-.785-.995c-.395-.511-.784-1.06-1.167-1.647a31.543 31.543 0 0 1-1.339-2.317A37.347 37.347 0 0 1 .077 1.306.883.883 0 0 1 0 1C0 .923.013.86.038.808L.077.77C.179.617.383.54.689.54H3.71c.077 0 .153.02.23.058l.191.096.038.038a.611.611 0 0 1 .268.345c.153.357.326.733.517 1.13.191.395.338.695.44.9l.153.305c.23.434.44.811.631 1.13.191.32.364.568.517.747.153.179.306.319.459.421.153.102.28.153.382.153.102 0 .205-.012.307-.038 0 0 .012-.02.038-.057a2.88 2.88 0 0 0 .134-.25 1.92 1.92 0 0 0 .153-.497c.038-.204.07-.498.095-.88.026-.384.026-.843 0-1.38a6.816 6.816 0 0 0-.114-.785 2.354 2.354 0 0 0-.153-.517l-.039-.114c-.178-.256-.497-.422-.956-.498-.077 0-.051-.09.076-.268.128-.128.268-.23.421-.307.383-.204 1.25-.293 2.602-.268.587 0 1.084.051 1.492.153.128.026.242.07.344.134a.59.59 0 0 1 .23.269c.051.114.09.23.115.344.025.115.038.281.038.498v.594c-.025.204-.038.46-.038.765v.92c0 .076-.007.23-.02.46-.012.229-.018.408-.018.535 0 .128.012.275.038.44.025.167.07.307.134.422a.584.584 0 0 0 .42.306c.064.013.16-.025.288-.115.127-.09.267-.217.42-.383a7.17 7.17 0 0 0 .574-.746c.23-.332.472-.715.727-1.15.434-.765.83-1.595 1.186-2.488.026-.051.058-.109.096-.173a.337.337 0 0 1 .134-.134h.038l.039-.038.153-.038h.23L19.857.54c.28-.025.516-.012.707.039.192.05.3.115.326.191l.076.115z"/>
</svg>
