<svg xmlns="http://www.w3.org/2000/svg" xmlns:xlink="http://www.w3.org/1999/xlink" width="37" height="20" viewBox="0 0 37 20">
    <defs>
        <path id="a" d="M36.776 19.979H0V0h36.776z"/>
    </defs>
    <g fill="none" fill-rule="evenodd">
        <path d="M-2-10h40v40H-2z"/>
        <g>
            <mask id="b" fill="#fff">
                <use xlink:href="#a"/>
            </mask>
            <path fill="#939393" d="M35.05 18.452h-3.732c1.39-.754 2.7-1.635 3.932-2.614v2.414a.2.2 0 0 1-.2.2zm-33.523-.2v-2.414a27.153 27.153 0 0 0 3.932 2.614H1.727a.2.2 0 0 1-.2-.2zM35.25 7.578v6.287a25.64 25.64 0 0 1-7.557 4.587H9.09a25.668 25.668 0 0 1-7.563-4.591V7.573c3.902 5.039 10.008 8.29 16.862 8.29 6.853 0 12.958-3.25 16.861-8.285zM1.727 1.527h2.895c2.554 5.019 7.766 8.462 13.767 8.462 6.005 0 11.212-3.443 13.765-8.462h2.896c.11 0 .2.09.2.2V4.89c-3.487 5.662-9.736 9.445-16.861 9.445-7.12 0-13.375-3.783-16.862-9.445V1.727c0-.11.09-.2.2-.2zm12.668 0h7.991a8.007 8.007 0 0 1-3.997 1.062 7.988 7.988 0 0 1-3.994-1.062zm-2.54 0a9.519 9.519 0 0 0 6.534 2.59 9.516 9.516 0 0 0 6.532-2.59h5.496c-2.41 4.145-6.894 6.935-12.028 6.935-5.135 0-9.62-2.79-12.03-6.935h5.497zM35.05 0H1.727A1.73 1.73 0 0 0 0 1.727v16.525a1.73 1.73 0 0 0 1.727 1.727H35.05a1.73 1.73 0 0 0 1.726-1.727V1.727C36.776.774 36.002 0 35.05 0z" mask="url(#b)"/>
        </g>
    </g>
</svg>
