<svg xmlns="http://www.w3.org/2000/svg" width="18" height="15" viewBox="0 0 18 15">
    <path fill="#696969" fill-rule="evenodd" d="M7 12l6-4-6-4v8zM16.192.395c.672.292 1.142 1.11 1.408 2.456.267 1.345.4 2.887.4 4.627 0 1.74-.133 3.29-.4 4.65-.266 1.359-.736 2.185-1.408 2.477-.337.117-1.192.212-2.566.285-1.374.073-2.916.11-4.626.11-1.71 0-3.252-.037-4.626-.11-1.374-.073-2.23-.168-2.566-.285C1.136 14.313.666 13.487.4 12.127c-.267-1.36-.4-2.91-.4-4.649 0-1.74.133-3.282.4-4.627.266-1.345.736-2.178 1.408-2.5C2.145.263 3 .183 4.374.11A87.821 87.821 0 0 1 9 0c1.71 0 3.252.044 4.626.132 1.374.087 2.23.175 2.566.263z"/>
</svg>
